<svg width="25" height="20" viewBox="0 0 25 20" fill="none" xmlns="http://www.w3.org/2000/svg">
<path d="M2.25 2.25L9.88455 8.01533L9.88709 8.01744C10.7348 8.63911 11.1589 8.95012 11.6234 9.07027C12.034 9.17647 12.4656 9.17647 12.8762 9.07027C13.3412 8.95001 13.7665 8.63809 14.6157 8.01533C14.6157 8.01533 19.5126 4.25742 22.25 2.25M1 14.5002V5.00024C1 3.60011 1 2.89953 1.27248 2.36475C1.51217 1.89434 1.89434 1.51217 2.36475 1.27248C2.89953 1 3.60011 1 5.00024 1H19.5002C20.9004 1 21.5995 1 22.1342 1.27248C22.6047 1.51217 22.9881 1.89434 23.2278 2.36475C23.5 2.899 23.5 3.59874 23.5 4.99614V14.5045C23.5 15.9019 23.5 16.6006 23.2278 17.1349C22.9881 17.6053 22.6047 17.9881 22.1342 18.2278C21.6 18.5 20.9013 18.5 19.5039 18.5H4.99614C3.59874 18.5 2.899 18.5 2.36475 18.2278C1.89434 17.9881 1.51217 17.6053 1.27248 17.1349C1 16.6001 1 15.9004 1 14.5002Z" stroke="white" stroke-width="2" stroke-linecap="round" stroke-linejoin="round"/>
</svg>
