<svg width="27" height="27" viewBox="0 0 27 27" fill="none" xmlns="http://www.w3.org/2000/svg">
<path d="M12.2663 1.1903C11.8069 1.3806 11.3951 1.79246 10.5714 2.61612C9.74793 3.43959 9.3359 3.85162 9.14562 4.31099C8.89189 4.92356 8.89189 5.61191 9.14562 6.22448C9.33592 6.68391 9.74776 7.09575 10.5714 7.91942C11.3946 8.74263 11.807 9.155 12.2663 9.34525C12.8789 9.59898 13.5672 9.59898 14.1798 9.34524C14.6392 9.15494 15.0511 8.7431 15.8747 7.91943C16.6984 7.09575 17.109 6.68391 17.2993 6.22448C17.5531 5.61191 17.5531 4.92356 17.2993 4.31099C17.109 3.85156 16.6984 3.43979 15.8747 2.61612C15.0511 1.79245 14.6392 1.3806 14.1798 1.1903C13.5672 0.936566 12.8789 0.936566 12.2663 1.1903Z" stroke="white" stroke-width="2" stroke-linecap="round" stroke-linejoin="round"/>
<path d="M4.31102 9.14501C3.8516 9.33531 3.43975 9.74716 2.61608 10.5708C1.79264 11.3943 1.38058 11.8063 1.1903 12.2657C0.936566 12.8783 0.936566 13.5666 1.1903 14.1792C1.3806 14.6386 1.79245 15.0505 2.61612 15.8741C3.43932 16.6973 3.85169 17.1097 4.31099 17.3C4.92356 17.5537 5.61191 17.5537 6.22448 17.3C6.68391 17.1097 7.09575 16.6978 7.91942 15.8741C8.7431 15.0505 9.15372 14.6386 9.34403 14.1792C9.59776 13.5666 9.59776 12.8783 9.34403 12.2657C9.15372 11.8063 8.7431 11.3945 7.91942 10.5708C7.09575 9.74715 6.68391 9.33531 6.22448 9.14501C5.61191 8.89128 4.92359 8.89128 4.31102 9.14501Z" stroke="white" stroke-width="2" stroke-linecap="round" stroke-linejoin="round"/>
<path d="M18.5267 10.5708C17.7033 11.3943 17.2912 11.8063 17.1009 12.2657C16.8472 12.8783 16.8472 13.5666 17.1009 14.1792C17.2912 14.6386 17.7031 15.0505 18.5268 15.8741C19.35 16.6973 19.7623 17.1097 20.2216 17.3C20.8342 17.5537 21.5226 17.5537 22.1351 17.3C22.5946 17.1097 23.0064 16.6978 23.8301 15.8741C24.6537 15.0505 25.0644 14.6386 25.2547 14.1792C25.5084 13.5666 25.5084 12.8783 25.2547 12.2657C25.0644 11.8063 24.6537 11.3945 23.8301 10.5708C23.0064 9.74716 22.5946 9.33531 22.1351 9.14501C21.5226 8.89128 20.8342 8.89128 20.2217 9.14501C19.7622 9.33531 19.3504 9.74717 18.5267 10.5708Z" stroke="white" stroke-width="2" stroke-linecap="round" stroke-linejoin="round"/>
<path d="M12.2663 17.1003C11.8069 17.2906 11.3951 17.7025 10.5714 18.5262C9.74795 19.3496 9.3359 19.7617 9.14562 20.221C8.89189 20.8336 8.89189 21.5219 9.14562 22.1345C9.33592 22.5939 9.74777 23.0058 10.5714 23.8295C11.3946 24.6527 11.807 25.065 12.2663 25.2553C12.8789 25.509 13.5672 25.509 14.1798 25.2553C14.6392 25.065 15.0511 24.6531 15.8747 23.8295C16.6984 23.0058 17.109 22.5939 17.2993 22.1345C17.5531 21.5219 17.5531 20.8336 17.2993 20.221C17.109 19.7616 16.6984 19.3498 15.8747 18.5262C15.0511 17.7025 14.6392 17.2906 14.1798 17.1003C13.5672 16.8466 12.8789 16.8466 12.2663 17.1003Z" stroke="white" stroke-width="2" stroke-linecap="round" stroke-linejoin="round"/>
</svg>
