<svg width="22" height="23" viewBox="0 0 22 23" fill="none" xmlns="http://www.w3.org/2000/svg">
<path d="M21.0001 17.706V10.7595C21.0001 10.0904 20.9995 9.75571 20.9183 9.44439C20.8463 9.1685 20.7282 8.90741 20.5683 8.67148C20.3879 8.40525 20.137 8.18448 19.6344 7.74391L13.6344 2.48512C12.7011 1.66715 12.2345 1.25837 11.7093 1.10281C11.2466 0.965732 10.7534 0.965732 10.2906 1.10281C9.76586 1.25825 9.2999 1.66664 8.36805 2.48338L2.36606 7.74391C1.86339 8.18448 1.61264 8.40525 1.43222 8.67148C1.27233 8.90741 1.15328 9.1685 1.08131 9.44439C1.00009 9.75571 1.00009 10.0904 1.00009 10.7595V17.706C1.00009 18.8728 1.00009 19.456 1.19039 19.9162C1.44413 20.5298 1.93049 21.0179 2.54306 21.272C3.00249 21.4626 3.58492 21.4626 4.74977 21.4626C5.91462 21.4626 6.49769 21.4626 6.95712 21.272C7.56969 21.0179 8.05593 20.5299 8.30966 19.9163C8.49996 19.4561 8.50009 18.8727 8.50009 17.7059V16.4538C8.50009 15.0708 9.61938 13.9496 11.0001 13.9496C12.3808 13.9496 13.5001 15.0708 13.5001 16.4538V17.7059C13.5001 18.8727 13.5001 19.4561 13.6904 19.9163C13.9441 20.5299 14.4305 21.0179 15.0431 21.272C15.5025 21.4626 16.0849 21.4626 17.2498 21.4626C18.4146 21.4626 18.9977 21.4626 19.4571 21.272C20.0697 21.0179 20.5559 20.5298 20.8097 19.9162C21 19.456 21.0001 18.8728 21.0001 17.706Z" stroke="#383838" stroke-width="2" stroke-linecap="round" stroke-linejoin="round"/>
</svg>
