<svg width="64" height="64" viewBox="0 0 64 64" fill="none" xmlns="http://www.w3.org/2000/svg">
<circle cx="28.8" cy="35.2" r="28.8" fill="#F20574" fill-opacity="0.5"/>
<circle cx="35.2" cy="28.8" r="28.8" fill="#EE05FA" fill-opacity="0.5"/>
<path d="M28.8 6.40002C44.7058 6.40002 57.6 19.2942 57.6 35.2C57.6 41.5198 55.5642 47.364 52.113 52.113C47.364 55.5643 41.5198 57.6 35.2 57.6C19.2942 57.6 6.39999 44.7058 6.39999 28.8C6.39999 22.4802 8.4356 16.6359 11.8869 11.8869C16.6359 8.43563 22.4802 6.40002 28.8 6.40002Z" fill="#CE0691"/>
<rect x="30.72" y="10.112" width="5.12" height="32" rx="2.56" transform="rotate(30 30.72 10.112)" fill="#F2B3E8"/>
<rect x="28.16" y="12.672" width="5.12" height="32" rx="2.56" transform="rotate(-30 28.16 12.672)" fill="#F2B3E8"/>
<rect width="5.12" height="32" rx="2.56" transform="matrix(-0.866024 0.500003 -0.499997 -0.866027 35.1539 50.4969)" fill="#C6B4EF"/>
<rect width="5.12" height="32" rx="2.56" transform="matrix(-0.866024 -0.500003 0.499997 -0.866027 32.594 53.0569)" fill="#C6B4EF"/>
</svg>
