<svg width="22" height="25" viewBox="0 0 22 25" fill="none" xmlns="http://www.w3.org/2000/svg">
<path d="M20 23.5C20 22.2433 19.1822 20.9544 17.541 19.9287C15.9139 18.9118 13.604 18.25 11 18.25C8.39601 18.25 6.08606 18.9118 4.45898 19.9287C2.81783 20.9544 2 22.2433 2 23.5C2 24.0523 1.55228 24.5 1 24.5C0.447715 24.5 0 24.0523 0 23.5C0 21.3049 1.42129 19.4687 3.39941 18.2324C5.39159 16.9874 8.08134 16.25 11 16.25C13.9187 16.25 16.6084 16.9874 18.6006 18.2324C20.5787 19.4687 22 21.3049 22 23.5C22 24.0523 21.5523 24.5 21 24.5C20.4477 24.5 20 24.0523 20 23.5ZM16.25 7.25C16.25 4.3505 13.8995 2 11 2C8.1005 2 5.75 4.3505 5.75 7.25C5.75 10.1495 8.1005 12.5 11 12.5C13.8995 12.5 16.25 10.1495 16.25 7.25ZM18.25 7.25C18.25 11.2541 15.0041 14.5 11 14.5C6.99593 14.5 3.75 11.2541 3.75 7.25C3.75 3.24594 6.99593 0 11 0C15.0041 0 18.25 3.24594 18.25 7.25Z" fill="white"/>
</svg>
